<svg xmlns="http://www.w3.org/2000/svg" width="28.922" height="88.824" viewBox="0 0 28.922 88.824">
  <g id="el_2" data-name="el 2" transform="translate(4.805 -0.319) rotate(19)">
    <g id="Group_533" data-name="Group 533" transform="translate(26.88 68.918)">
      <path id="Path_266" data-name="Path 266" d="M175.564,382.323c1.764-3.021,2.191-6.033.955-6.727s-3.668,1.191-5.431,4.212a10.474,10.474,0,0,0-.955,6.727A10.857,10.857,0,0,0,175.564,382.323Z" transform="translate(-162.635 -375.452)"/>
      <path id="Path_267" data-name="Path 267" d="M166.595,382.658c-1.562-1.87-2.209-3.879-1.448-4.489s2.645.413,4.206,2.282a7.3,7.3,0,0,1,1.447,4.487A7.631,7.631,0,0,1,166.595,382.658Z" transform="translate(-164.828 -374.364)"/>
    </g>
    <g id="Group_534" data-name="Group 534" transform="translate(27.881 57.059)">
      <path id="Path_268" data-name="Path 268" d="M176.332,374c1.211-3.272,1.108-6.313-.228-6.791s-3.4,1.787-4.616,5.059a10.492,10.492,0,0,0,.228,6.791A10.745,10.745,0,0,0,176.332,374Z" transform="translate(-163.184 -367.149)"/>
      <path id="Path_269" data-name="Path 269" d="M167.93,375.576c-1.862-1.582-2.849-3.456-2.205-4.183s2.676-.036,4.539,1.547a7.361,7.361,0,0,1,2.207,4.183A7.685,7.685,0,0,1,167.93,375.576Z" transform="translate(-165.528 -365.456)"/>
    </g>
    <g id="Group_535" data-name="Group 535" transform="translate(27.139 45.331)">
      <path id="Path_270" data-name="Path 270" d="M175.686,365.611c.624-3.428-.006-6.408-1.407-6.657s-3.042,2.329-3.666,5.757a10.531,10.531,0,0,0,1.408,6.657A10.635,10.635,0,0,0,175.686,365.611Z" transform="translate(-162.66 -358.937)"/>
      <path id="Path_271" data-name="Path 271" d="M168.02,368.38c-2.109-1.25-3.409-2.932-2.9-3.756s2.629-.481,4.74.768a7.433,7.433,0,0,1,2.9,3.756A7.7,7.7,0,0,1,168.02,368.38Z" transform="translate(-165.009 -356.695)"/>
    </g>
    <g id="Group_536" data-name="Group 536" transform="translate(24.689 34.079)">
      <path id="Path_272" data-name="Path 272" d="M173.627,357.386c.019-3.483-1.121-6.316-2.544-6.327s-2.591,2.8-2.609,6.288a10.614,10.614,0,0,0,2.545,6.327A10.549,10.549,0,0,0,173.627,357.386Z" transform="translate(-161.075 -351.059)"/>
      <path id="Path_273" data-name="Path 273" d="M166.855,361.289c-2.3-.88-3.868-2.321-3.51-3.219s2.507-.913,4.8-.033a7.509,7.509,0,0,1,3.51,3.218A7.7,7.7,0,0,1,166.855,361.289Z" transform="translate(-163.294 -348.35)"/>
    </g>
    <g id="Group_537" data-name="Group 537" transform="translate(20.607 23.634)">
      <path id="Path_274" data-name="Path 274" d="M170.241,349.572c-.588-3.436-2.2-6.04-3.606-5.813s-2.064,3.2-1.475,6.634a10.714,10.714,0,0,0,3.608,5.814A10.5,10.5,0,0,0,170.241,349.572Z" transform="translate(-158.504 -343.745)"/>
      <path id="Path_275" data-name="Path 275" d="M164.467,354.53c-2.414-.484-4.212-1.642-4.017-2.588s2.311-1.318,4.724-.834a7.582,7.582,0,0,1,4.017,2.588A7.676,7.676,0,0,1,164.467,354.53Z" transform="translate(-160.435 -340.684)"/>
    </g>
    <g id="Group_538" data-name="Group 538" transform="translate(15.015 14.299)">
      <path id="Path_276" data-name="Path 276" d="M165.642,342.4c-1.178-3.291-3.222-5.587-4.565-5.13s-1.477,3.5-.3,6.787a10.832,10.832,0,0,0,4.565,5.13A10.483,10.483,0,0,0,165.642,342.4Z" transform="translate(-155.04 -337.209)"/>
      <path id="Path_277" data-name="Path 277" d="M160.927,348.325c-2.461-.074-4.435-.917-4.407-1.881s2.047-1.685,4.507-1.61a7.641,7.641,0,0,1,4.407,1.881A7.622,7.622,0,0,1,160.927,348.325Z" transform="translate(-156.52 -333.947)"/>
    </g>
    <g id="Group_539" data-name="Group 539" transform="translate(8.078 6.347)">
      <path id="Path_278" data-name="Path 278" d="M159.92,336.071c-1.732-3.048-4.145-4.97-5.387-4.295s-.847,3.692.887,6.74a10.929,10.929,0,0,0,5.387,4.295A10.489,10.489,0,0,0,159.92,336.071Z" transform="translate(-150.744 -331.641)"/>
      <path id="Path_279" data-name="Path 279" d="M156.339,342.863c-2.438.337-4.527-.164-4.669-1.118s1.722-2,4.159-2.341a7.69,7.69,0,0,1,4.669,1.12A7.553,7.553,0,0,1,156.339,342.863Z" transform="translate(-151.663 -328.339)"/>
    </g>
    <g id="Group_540" data-name="Group 540">
      <path id="Path_280" data-name="Path 280" d="M153.217,330.782c-2.238-2.715-4.947-4.209-6.054-3.335s-.19,3.782,2.047,6.5a11.027,11.027,0,0,0,6.053,3.335A10.537,10.537,0,0,0,153.217,330.782Z" transform="translate(-145.712 -327.197)"/>
      <path id="Path_281" data-name="Path 281" d="M150.834,338.276c-2.342.74-4.487.594-4.792-.324s1.347-2.262,3.689-3a7.7,7.7,0,0,1,4.792.324A7.467,7.467,0,0,1,150.834,338.276Z" transform="translate(-146.007 -323.989)"/>
    </g>
  </g>
</svg>
