<svg xmlns="http://www.w3.org/2000/svg" width="28.922" height="88.824" viewBox="0 0 28.922 88.824">
  <g id="el_1" data-name="el 1" transform="translate(50.163 75.322) rotate(161)">
    <g id="Group_533" data-name="Group 533" transform="translate(26.88 0)">
      <path id="Path_266" data-name="Path 266" d="M5.616,4.212c1.764,3.021,2.191,6.033.955,6.727S2.9,9.747,1.14,6.727A10.474,10.474,0,0,1,.185,0,10.857,10.857,0,0,1,5.616,4.212Z" transform="translate(7.312)"/>
      <path id="Path_267" data-name="Path 267" d="M1.767,2.281C.2,4.15-.442,6.16.319,6.77s2.645-.413,4.206-2.282A7.3,7.3,0,0,0,5.972,0,7.631,7.631,0,0,0,1.767,2.281Z" transform="translate(0 0.508)"/>
    </g>
    <g id="Group_534" data-name="Group 534" transform="translate(27.881 11.027)">
      <path id="Path_268" data-name="Path 268" d="M5.329,5.059C6.54,8.331,6.438,11.371,5.1,11.85S1.7,10.063.485,6.791A10.492,10.492,0,0,1,.713,0,10.745,10.745,0,0,1,5.329,5.059Z" transform="translate(7.819 0)"/>
      <path id="Path_269" data-name="Path 269" d="M2.4,1.547C.54,3.129-.447,5,.2,5.73s2.676.036,4.539-1.547A7.361,7.361,0,0,0,6.942,0,7.685,7.685,0,0,0,2.4,1.547Z" transform="translate(0 0.247)"/>
    </g>
    <g id="Group_535" data-name="Group 535" transform="translate(27.139 22.124)">
      <path id="Path_270" data-name="Path 270" d="M5.192,5.757c.624,3.428-.006,6.408-1.407,6.657S.743,10.085.119,6.657A10.531,10.531,0,0,1,1.527,0,10.635,10.635,0,0,1,5.192,5.757Z" transform="translate(7.833 0.114)"/>
      <path id="Path_271" data-name="Path 271" d="M3.011.86C.9,2.109-.4,3.792.11,4.616s2.629.481,4.74-.768A7.433,7.433,0,0,0,7.751.091,7.7,7.7,0,0,0,3.011.86Z" transform="translate(0 0)"/>
    </g>
    <g id="Group_536" data-name="Group 536" transform="translate(24.689 32.599)">
      <path id="Path_272" data-name="Path 272" d="M5.153,6.288c.019,3.483-1.121,6.316-2.544,6.327S.019,9.812,0,6.327A10.614,10.614,0,0,1,2.545,0,10.549,10.549,0,0,1,5.153,6.288Z" transform="translate(7.399 0.707)"/>
      <path id="Path_273" data-name="Path 273" d="M3.561.382C1.265,1.262-.306,2.7.051,3.6s2.507.913,4.8.033A7.509,7.509,0,0,0,8.363.417,7.7,7.7,0,0,0,3.561.382Z" transform="translate(0 0)"/>
    </g>
    <g id="Group_537" data-name="Group 537" transform="translate(20.607 42.413)">
      <path id="Path_274" data-name="Path 274" d="M5.3,6.635c-.588,3.436-2.2,6.04-3.606,5.813S-.373,9.252.215,5.814A10.714,10.714,0,0,1,3.823,0,10.5,10.5,0,0,1,5.3,6.635Z" transform="translate(6.44 1.491)"/>
      <path id="Path_275" data-name="Path 275" d="M4.032.107C1.618.591-.18,1.749.014,2.695s2.311,1.318,4.724.834A7.582,7.582,0,0,0,8.756.941,7.676,7.676,0,0,0,4.032.107Z" transform="translate(0 0)"/>
    </g>
    <g id="Group_538" data-name="Group 538" transform="translate(15.015 51.32)">
      <path id="Path_276" data-name="Path 276" d="M5.666,6.787c-1.178,3.291-3.222,5.587-4.565,5.13S-.375,8.421.8,5.13A10.832,10.832,0,0,1,5.367,0,10.483,10.483,0,0,1,5.666,6.787Z" transform="translate(4.936 2.406)"/>
      <path id="Path_277" data-name="Path 277" d="M4.408,0C1.947.077-.027.919,0,1.883s2.047,1.685,4.507,1.61A7.641,7.641,0,0,0,8.915,1.612,7.622,7.622,0,0,0,4.408,0Z" transform="translate(0 0)"/>
    </g>
    <g id="Group_539" data-name="Group 539" transform="translate(8.078 59.024)">
      <path id="Path_278" data-name="Path 278" d="M6.112,6.74C4.38,9.787,1.967,11.71.725,11.034s-.847-3.692.887-6.74A10.929,10.929,0,0,1,7,0,10.489,10.489,0,0,1,6.112,6.74Z" transform="translate(3.065 3.46)"/>
      <path id="Path_279" data-name="Path 279" d="M4.676.105C2.238-.232.149.269.007,1.223s1.722,2,4.159,2.341a7.69,7.69,0,0,0,4.669-1.12A7.553,7.553,0,0,0,4.676.105Z" transform="translate(0 0)"/>
    </g>
    <g id="Group_540" data-name="Group 540" transform="translate(0 65.24)">
      <path id="Path_280" data-name="Path 280" d="M6.524,6.5C4.286,9.212,1.576,10.706.47,9.832S.28,6.05,2.516,3.335A11.027,11.027,0,0,1,8.569,0,10.537,10.537,0,0,1,6.524,6.5Z" transform="translate(0.981 4.678)"/>
      <path id="Path_281" data-name="Path 281" d="M4.828.472C2.486-.268.341-.122.036.8s1.347,2.262,3.689,3a7.7,7.7,0,0,0,4.792-.324A7.467,7.467,0,0,0,4.828.472Z" transform="translate(0 0)"/>
    </g>
  </g>
</svg>
